<?xml version="1.0" encoding="UTF-8"?><svg id="Camada_1" xmlns="http://www.w3.org/2000/svg" viewBox="0 0 259.2 231.51"><defs><style>.cls-1{fill:#fcfcfc;fill-rule:evenodd;}</style></defs><g id="Submark"><polygon class="cls-1" points="259.2 .03 106.53 231.51 80.84 174 195.5 .03 259.2 .03"/><path class="cls-1" d="M62.51,3.52l-10.3,25.38c-4.3,10.61-12.72,19.02-23.33,23.33L3.52,62.52c-4.69,1.91-4.69,8.55,0,10.45l25.37,10.29c10.61,4.3,19.03,12.72,23.33,23.33l10.3,25.37c1.91,4.69,8.55,4.69,10.45,0l10.3-25.37c4.3-10.61,12.72-19.02,23.33-23.33l25.37-10.29c4.69-1.91,4.69-8.55,0-10.45l-25.37-10.29c-10.61-4.3-19.03-12.72-23.33-23.33l-10.3-25.38c-1.9-4.69-8.54-4.69-10.45,0Z"/></g></svg>