<?xml version="1.0" encoding="UTF-8"?><svg id="Camada_1" xmlns="http://www.w3.org/2000/svg" viewBox="0 0 252.84 86.16"><defs><style>.cls-1,.cls-2{fill:#fcfcfc;}.cls-2{fill-rule:evenodd;}</style></defs><path class="cls-2" d="M17.62,20.53l-2.9,7.15c-1.21,2.99-3.58,5.36-6.57,6.57l-7.15,2.9c-1.32.54-1.32,2.41,0,2.95l7.15,2.9c2.99,1.21,5.36,3.58,6.57,6.57l2.9,7.15c.54,1.32,2.41,1.32,2.94,0l2.9-7.15c1.21-2.99,3.58-5.36,6.57-6.57l7.15-2.9c1.32-.54,1.32-2.41,0-2.95l-7.15-2.9c-2.99-1.21-5.36-3.58-6.57-6.57l-2.9-7.15c-.54-1.32-2.41-1.32-2.94,0Z"/><polygon class="cls-2" points="73.05 19.54 30.02 84.78 22.78 68.57 55.1 19.54 73.05 19.54"/><path class="cls-1" d="M80.65,85.88c-4.94,0-9.36-1.02-13.23-3.07-3.88-2.05-6.93-4.87-9.16-8.47-2.23-3.6-3.34-7.66-3.34-12.18s1.1-8.55,3.3-12.09c2.2-3.54,5.23-6.33,9.11-8.38,3.88-2.05,8.29-3.07,13.23-3.07s9.34,1.02,13.19,3.07c3.85,2.05,6.88,4.84,9.11,8.38,2.23,3.54,3.34,7.57,3.34,12.09s-1.1,8.58-3.3,12.18c-2.2,3.6-5.22,6.43-9.07,8.47s-8.24,3.07-13.19,3.07ZM80.56,70.13c1.53,0,2.85-.32,3.98-.96,1.13-.64,2-1.56,2.61-2.75s.92-2.58.92-4.17-.32-2.98-.96-4.17c-.64-1.19-1.51-2.11-2.61-2.75-1.1-.64-2.41-.96-3.94-.96s-2.76.34-3.89,1.01c-1.13.67-2.01,1.6-2.65,2.79-.64,1.19-.96,2.58-.96,4.17s.32,2.89.96,4.08c.64,1.19,1.53,2.11,2.65,2.75,1.13.64,2.43.96,3.89.96Z"/><path class="cls-1" d="M111.79,84.78V17.74h17.95v67.04h-17.95ZM140.82,84.78l-12.55-23.72,12.46-21.34h19.32l-16.12,24.09.46-5.86,16.58,26.83h-20.15Z"/><path class="cls-1" d="M182.85,85.88c-4.95,0-9.36-1.02-13.23-3.07-3.88-2.05-6.93-4.87-9.16-8.47-2.23-3.6-3.34-7.66-3.34-12.18s1.1-8.55,3.3-12.09c2.2-3.54,5.23-6.33,9.11-8.38,3.88-2.05,8.29-3.07,13.23-3.07s9.34,1.02,13.19,3.07c3.85,2.05,6.88,4.84,9.11,8.38,2.23,3.54,3.34,7.57,3.34,12.09s-1.1,8.58-3.3,12.18c-2.2,3.6-5.22,6.43-9.07,8.47s-8.24,3.07-13.19,3.07ZM182.75,70.13c1.53,0,2.85-.32,3.99-.96,1.13-.64,2-1.56,2.61-2.75s.92-2.58.92-4.17-.32-2.98-.96-4.17-1.51-2.11-2.61-2.75c-1.1-.64-2.41-.96-3.94-.96s-2.76.34-3.89,1.01c-1.13.67-2.02,1.6-2.66,2.79-.64,1.19-.96,2.58-.96,4.17s.32,2.89.96,4.08c.64,1.19,1.53,2.11,2.66,2.75,1.13.64,2.43.96,3.89.96Z"/><path class="cls-1" d="M231.32,86.16c-2.81,0-5.62-.37-8.43-1.1-2.81-.73-5.42-1.74-7.83-3.02-2.41-1.28-4.44-2.75-6.09-4.4l9.43-9.71c1.46,1.47,3.22,2.63,5.27,3.48,2.04.86,4.2,1.28,6.46,1.28,1.04,0,1.84-.14,2.43-.41.58-.27.87-.65.87-1.14,0-.85-.5-1.5-1.51-1.92-1.01-.43-2.29-.82-3.85-1.19s-3.21-.84-4.94-1.42c-1.74-.58-3.41-1.37-4.99-2.38-1.59-1.01-2.87-2.41-3.85-4.21-.98-1.8-1.46-4.11-1.46-6.91s.81-5.42,2.43-7.65c1.62-2.23,3.91-4,6.87-5.31,2.96-1.31,6.4-1.97,10.3-1.97s7.81.67,11.54,2.01c3.72,1.34,6.69,3.36,8.88,6.04l-9.52,9.71c-1.53-1.71-3.21-2.85-5.04-3.43-1.83-.58-3.36-.87-4.58-.87s-1.97.17-2.43.5c-.46.34-.69.75-.69,1.24,0,.67.49,1.22,1.46,1.65.98.43,2.24.82,3.8,1.19s3.19.86,4.9,1.46c1.71.61,3.34,1.47,4.9,2.56,1.56,1.1,2.82,2.55,3.8,4.35.97,1.8,1.46,4.14,1.46,7.01,0,4.46-1.77,8-5.31,10.62-3.54,2.62-8.3,3.94-14.29,3.94Z"/></svg>